REM DIRINDEX 1\2,1\3,1\4,1\5
REM DIRNAME "folder01","folder02","folder03","folder04","folder05"
TITLE ""
FILE "P1Q_t_0930-0939.mp3" MP3
  TRACK 01 AUDIO
    TITLE "2:cjc173_3740"
    INDEX 01 00:00:00
  TRACK 02 AUDIO
    TITLE "0:"
    INDEX 01 00:01:08
  TRACK 03 AUDIO
    TITLE "3:cjc173_3741"
    INDEX 01 00:01:55
  TRACK 04 AUDIO
    TITLE "0:"
    INDEX 01 00:02:68
  TRACK 05 AUDIO
    TITLE "4:cjc173_3742"
    INDEX 01 00:03:16
  TRACK 06 AUDIO
    TITLE "0:"
    INDEX 01 00:05:60
  TRACK 07 AUDIO
    TITLE "5:cjc173_3743"
    INDEX 01 00:06:05
  TRACK 08 AUDIO
    TITLE "0:"
    INDEX 01 00:12:61
  TRACK 09 AUDIO
    TITLE "3:cjc173_3744"
    INDEX 01 00:13:33
  TRACK 10 AUDIO
    TITLE "0:"
    INDEX 01 00:14:46
  TRACK 11 AUDIO
    TITLE "4:cjc173_3745"
    INDEX 01 00:14:69
  TRACK 12 AUDIO
    TITLE "0:"
    INDEX 01 00:17:13
  TRACK 13 AUDIO
    TITLE "5:cjc173_3746"
    INDEX 01 00:17:32
  TRACK 14 AUDIO
    TITLE "0:"
    INDEX 01 00:21:63
  TRACK 15 AUDIO
    TITLE "3:cjc173_3747"
    INDEX 01 00:22:35
  TRACK 16 AUDIO
    TITLE "0:"
    INDEX 01 00:23:72
  TRACK 17 AUDIO
    TITLE "4:cjc173_3748"
    INDEX 01 00:24:19
  TRACK 18 AUDIO
    TITLE "0:"
    INDEX 01 00:27:39
  TRACK 19 AUDIO
    TITLE "5:cjc173_3749"
    INDEX 01 00:27:58
  TRACK 20 AUDIO
    TITLE "0:"
    INDEX 01 00:33:41
  TRACK 21 AUDIO
    TITLE "3:cjc173_3750"
    INDEX 01 00:34:19
  TRACK 22 AUDIO
    TITLE "0:"
    INDEX 01 00:35:20
  TRACK 23 AUDIO
    TITLE "4:cjc173_3751"
    INDEX 01 00:35:36
  TRACK 24 AUDIO
    TITLE "0:"
    INDEX 01 00:37:47
  TRACK 25 AUDIO
    TITLE "5:cjc173_3752"
    INDEX 01 00:37:68
  TRACK 26 AUDIO
    TITLE "0:"
    INDEX 01 00:42:38
  TRACK 27 AUDIO
    TITLE "3:cjc173_3753"
    INDEX 01 00:43:12
  TRACK 28 AUDIO
    TITLE "0:"
    INDEX 01 00:44:15
  TRACK 29 AUDIO
    TITLE "4:cjc173_3754"
    INDEX 01 00:44:37
  TRACK 30 AUDIO
    TITLE "0:"
    INDEX 01 00:45:46
  TRACK 31 AUDIO
    TITLE "5:cjc173_3755"
    INDEX 01 00:45:66
  TRACK 32 AUDIO
    TITLE "0:"
    INDEX 01 00:50:63
  TRACK 33 AUDIO
    TITLE "3:cjc173_3756"
    INDEX 01 00:51:35
  TRACK 34 AUDIO
    TITLE "0:"
    INDEX 01 00:52:62
  TRACK 35 AUDIO
    TITLE "4:cjc173_3757"
    INDEX 01 00:53:09
  TRACK 36 AUDIO
    TITLE "0:"
    INDEX 01 00:54:24
  TRACK 37 AUDIO
    TITLE "5:cjc173_3758"
    INDEX 01 00:54:43
  TRACK 38 AUDIO
    TITLE "0:"
    INDEX 01 00:59:13
  TRACK 39 AUDIO
    TITLE "3:cjc173_3759"
    INDEX 01 00:59:60
  TRACK 40 AUDIO
    TITLE "0:"
    INDEX 01 01:01:04
  TRACK 41 AUDIO
    TITLE "4:cjc173_3760"
    INDEX 01 01:01:26
  TRACK 42 AUDIO
    TITLE "0:"
    INDEX 01 01:03:07
  TRACK 43 AUDIO
    TITLE "5:cjc173_3761"
    INDEX 01 01:03:28
  TRACK 44 AUDIO
    TITLE "0:"
    INDEX 01 01:09:55
  TRACK 45 AUDIO
    TITLE "3:cjc173_3762"
    INDEX 01 01:10:27
  TRACK 46 AUDIO
    TITLE "0:"
    INDEX 01 01:11:32
  TRACK 47 AUDIO
    TITLE "4:cjc173_3763"
    INDEX 01 01:11:55
  TRACK 48 AUDIO
    TITLE "0:"
    INDEX 01 01:16:60
  TRACK 49 AUDIO
    TITLE "5:cjc173_3764"
    INDEX 01 01:17:05
  TRACK 50 AUDIO
    TITLE "0:"
    INDEX 01 01:21:05
  TRACK 51 AUDIO
    TITLE "3:cjc173_3765"
    INDEX 01 01:21:52
  TRACK 52 AUDIO
    TITLE "0:"
    INDEX 01 01:22:55
  TRACK 53 AUDIO
    TITLE "4:cjc173_3766"
    INDEX 01 01:23:02
  TRACK 54 AUDIO
    TITLE "0:"
    INDEX 01 01:25:42
  TRACK 55 AUDIO
    TITLE "5:cjc173_3767"
    INDEX 01 01:25:61
  TRACK 56 AUDIO
    TITLE "0:"
    INDEX 01 01:30:35
  TRACK 57 AUDIO
    TITLE "3:cjc173_3768"
    INDEX 01 01:31:07
  TRACK 58 AUDIO
    TITLE "0:"
    INDEX 01 01:32:05
  TRACK 59 AUDIO
    TITLE "4:cjc173_3769"
    INDEX 01 01:32:24
  TRACK 60 AUDIO
    TITLE "0:"
    INDEX 01 01:35:23
  TRACK 61 AUDIO
    TITLE "5:cjc173_3770"
    INDEX 01 01:35:42
  TRACK 62 AUDIO
    TITLE "0:"
    INDEX 01 01:39:52
